<svg xmlns="http://www.w3.org/2000/svg" xmlns:xlink="http://www.w3.org/1999/xlink" width="28.873" height="25.542" viewBox="0 0 28.873 25.542">
  <defs>
    <clipPath id="clip-path">
      <rect id="Rettangolo_271" data-name="Rettangolo 271" width="28.873" height="25.542" fill="#384e46"/>
    </clipPath>
  </defs>
  <g id="Raggruppa_328" data-name="Raggruppa 328" clip-path="url(#clip-path)">
    <path id="Tracciato_108" data-name="Tracciato 108" d="M28.874,3.786H4.676L4.153,1.758A1.9,1.9,0,0,0,2.7.378L.94.017A.782.782,0,1,0,.626,1.549l1.762.361a.328.328,0,0,1,.25.238l4.18,16.2a1.89,1.89,0,0,0,1.83,1.418h16.3a.782.782,0,1,0,0-1.564H8.649a.326.326,0,0,1-.316-.245l-.752-2.915H26Z" transform="translate(-0.001 0)" fill="#384e46"/>
    <path id="Tracciato_109" data-name="Tracciato 109" d="M151.427,330.752a2.424,2.424,0,1,0,2.424,2.424,2.424,2.424,0,0,0-2.424-2.424" transform="translate(-139.681 -310.059)" fill="#384e46"/>
    <path id="Tracciato_110" data-name="Tracciato 110" d="M297.427,330.752a2.424,2.424,0,1,0,2.424,2.424,2.424,2.424,0,0,0-2.424-2.424" transform="translate(-276.547 -310.059)" fill="#384e46"/>
  </g>
</svg>
