<svg id="NASDAQ_Logo" xmlns="http://www.w3.org/2000/svg" width="131.677" height="37.425" viewBox="0 0 131.677 37.425">
  <path id="Tracciato_443" data-name="Tracciato 443" d="M105.607,30.083c-4.525,0-7.336-2.621-7.336-6.845,0-4.384,2.594-7.112,6.772-7.112h.35a17.32,17.32,0,0,1,2.231.14V10.973h2.951V29.606a35.984,35.984,0,0,1-4.968.477m-.026-11.634c-2.859,0-4.249,1.543-4.249,4.715,0,2.848,1.677,4.619,4.372,4.619.518,0,1.111-.034,1.92-.1V18.638a12.84,12.84,0,0,0-2.043-.19M65.186,29.655,57.215,15.745l0,13.911H54.434V12.045h3.889l7.971,13.787,0-13.787h2.815v17.61Zm25.391.271a23.005,23.005,0,0,1-4.408-.471l-.18-.034v-2.46l.263.056a19.413,19.413,0,0,0,4.007.581c1.025,0,3.412-.161,3.412-1.669,0-1.265-1.65-1.583-2.975-1.837l-.084-.017c-.248-.046-.481-.093-.678-.143-1.944-.5-4.018-1.263-4.018-3.867,0-2.541,2.011-4,5.517-4a24.325,24.325,0,0,1,3.887.327l.477.07v2.388l-.254-.046a20.764,20.764,0,0,0-3.666-.415c-1.393,0-3.045.261-3.045,1.5,0,1.028,1.352,1.322,2.918,1.663,2.19.474,4.905,1.069,4.905,4.057,0,2.741-2.214,4.314-6.08,4.314m28.282,0c-3.054,0-5.883-.539-5.883-4.438,0-4.244,4.374-4.244,6.989-4.244.26,0,1.489.057,1.866.074,0-2.381-.033-2.948-3.486-2.948a25.006,25.006,0,0,0-4.231.511l-.256.046V16.576l.173-.037a22.76,22.76,0,0,1,4.585-.47c3.346,0,6.18.337,6.18,4.488v9.053l-.2.023a49.145,49.145,0,0,1-5.733.294m1.032-6.582c-2.522,0-4.084.371-4.084,2.217,0,2.137,1.993,2.314,3.864,2.314.7,0,1.953-.09,2.337-.117V23.418c-.54-.023-1.946-.074-2.117-.074M77.454,29.926c-3.059,0-5.886-.539-5.886-4.438,0-4.244,4.374-4.244,6.988-4.244.261,0,1.493.057,1.87.074,0-2.381-.037-2.948-3.489-2.948a25.005,25.005,0,0,0-4.231.511l-.256.046V16.576l.177-.037a22.7,22.7,0,0,1,4.582-.47c3.345,0,6.18.337,6.18,4.488v9.053l-.2.023a49.118,49.118,0,0,1-5.73.294m1.028-6.582c-2.521,0-4.08.371-4.08,2.217,0,2.137,1.99,2.314,3.86,2.314.7,0,1.957-.09,2.341-.117V23.418c-.545-.023-1.95-.074-2.12-.074" transform="translate(-7.892 -1.607)" fill="#212720"/>
  <g id="Raggruppa_24417" data-name="Raggruppa 24417" transform="translate(119.333 14.512)">
    <path id="Tracciato_444" data-name="Tracciato 444" d="M9.909,20.513V14.736a14.308,14.308,0,0,1-2.257.161,9.407,9.407,0,0,1-3.473-.678C1.928,13.283.586,10.906.586,7.857c0-1.522.371-4.3,2.852-5.8A9.151,9.151,0,0,1,8.363.992c.791,0,1.859.06,2.891.12l1.676.087V19.174L9.909,20.513ZM8.143,3.316c-3,0-4.519,1.529-4.519,4.541,0,3.878,2.267,4.692,4.173,4.692a14.543,14.543,0,0,0,2.14-.147v-9c-.9-.06-1.322-.084-1.8-.084Z" transform="translate(-0.586 -0.992)" fill="#212720"/>
  </g>
  <g id="Raggruppa_24418" data-name="Raggruppa 24418" transform="translate(22.029 0)">
    <path id="Tracciato_445" data-name="Tracciato 445" d="M12.088.016,2.327,26.832a1.872,1.872,0,0,1-1.569,1.22v.013H11.076a1.867,1.867,0,0,0,1.757-1.232L22.6.016Z" transform="translate(-0.758 -0.016)" fill="#212720"/>
  </g>
  <path id="Tracciato_446" data-name="Tracciato 446" d="M24.14,29.32a1.767,1.767,0,0,0,1.443-.748,1.9,1.9,0,0,0,.233-.434L29.4,18.3,27.3,12.55a1.769,1.769,0,0,0-3.075-.34,1.991,1.991,0,0,0-.233.434l-3.58,9.837,2.1,5.77A1.767,1.767,0,0,0,24.14,29.32" transform="translate(-2.953 -1.678)" fill="#212720"/>
  <g id="Raggruppa_24419" data-name="Raggruppa 24419" transform="translate(0 9.376)">
    <path id="Tracciato_447" data-name="Tracciato 447" d="M22.94.984H12.509a1.871,1.871,0,0,0-1.76,1.233L.988,29.033H11.5L21.258,2.218A1.87,1.87,0,0,1,22.94.987Z" transform="translate(-0.988 -0.984)" fill="#212720"/>
  </g>
</svg>
