<svg id="Raggruppa_24423" data-name="Raggruppa 24423" xmlns="http://www.w3.org/2000/svg" xmlns:xlink="http://www.w3.org/1999/xlink" width="244.2" height="42.48" viewBox="0 0 244.2 42.48">
  <defs>
    <clipPath id="clip-path">
      <rect id="Rettangolo_10976" data-name="Rettangolo 10976" width="244.2" height="42.481" fill="#212720"/>
    </clipPath>
  </defs>
  <g id="Raggruppa_24422" data-name="Raggruppa 24422" clip-path="url(#clip-path)">
    <path id="Tracciato_479" data-name="Tracciato 479" d="M244.2,185.911c-31.863.681-63.813.035-95.685.036H0v-1.589H189.879c18.1,0,36.231-.351,54.322.035Z" transform="translate(0 -154.054)" fill="#212720"/>
    <path id="Tracciato_480" data-name="Tracciato 480" d="M969.454,229.546v-5.86c1.961.016,6.157.615,3.121,3.434l.848,2.426h-.916c-1.142-2.376-2.136-3.3-2.443,0Zm.957-3.02c2.661-.78,2.434-1.422,0-2.185Z" transform="translate(-810.739 -187.065)" fill="#212720"/>
    <path id="Tracciato_481" data-name="Tracciato 481" d="M1191.257,229.167l-.388-5.931c1.956,0,4.373-.171,5.026,2.146.585,2.076-1.028,3.2-2.806,3.785Zm.8-4.958v3.817c3.613.933,3.611-4.633,0-3.817" transform="translate(-995.906 -186.686)" fill="#212720"/>
    <path id="Tracciato_482" data-name="Tracciato 482" d="M1428.314,228.892c-.1-2.221-1.455-6.5,2-5.937,2.52.414,1.927,1.816,1.183,3.4l.486,2.535h-.611c-.574-1.14-.781-1.778-1.919-2.324a3.535,3.535,0,0,0-.524,2.324Zm.855-2.933c2.736-.978,2.57-1.444,0-2.324Z" transform="translate(-1194.189 -186.411)" fill="#212720"/>
    <path id="Tracciato_483" data-name="Tracciato 483" d="M673.485,228.589c-2.537-1.442-3.271-6.106.753-6.046,3.844.057,3.234,4.484.773,6.046Zm-1.357-3.134c-.19,2.615,3.854,2.811,4.109.3.267-2.642-3.918-2.927-4.109-.3" transform="translate(-561.482 -186.109)" fill="#212720"/>
    <path id="Tracciato_484" data-name="Tracciato 484" d="M1080.809,228.8l-.47-5.833.505-.174,3.559,3.929a10.515,10.515,0,0,1,.452-3.8c.741,1.925.528,3.841.533,5.878h-.611l-3.192-3.964-.472,3.964Z" transform="translate(-903.471 -186.316)" fill="#212720"/>
    <path id="Tracciato_485" data-name="Tracciato 485" d="M1303.3,227.788a46.575,46.575,0,0,1-.359-5.774l.383-.266,3.463,3.911c.064-1.415.116-2.572.184-4.075,1.471,1.081.884,4.641.909,6.2h-.611l-3.217-3.968-.447,3.968Z" transform="translate(-1089.627 -185.307)" fill="#212720"/>
    <path id="Tracciato_486" data-name="Tracciato 486" d="M721.522,229.554c-.117-1.885-.233-3.769-.347-5.594,2.5-.8,5.833.2,3.5,3.147l.509,2.447h-.611c-.679-.783-.5-2.42-2.264-2.308-.065.843-.122,1.576-.179,2.308Zm.827-2.939c2.671-.9,2.6-1.55,0-2.216Z" transform="translate(-603.107 -187.073)" fill="#212720"/>
    <path id="Tracciato_487" data-name="Tracciato 487" d="M1009.878,228.561q-.241-2.922-.483-5.844l.537-.209,3.269,3.712.306-.1V222.7c.885.418.885.418.951,5.861h-.611l-3.187-3.967-.477,3.967Z" transform="translate(-844.141 -186.081)" fill="#212720"/>
    <path id="Tracciato_488" data-name="Tracciato 488" d="M782.967,229.506v-5.764c4.724-.9,6.965,4.4,1.832,5.764Zm.93-1.1c3.782.592,3.433-4.686,0-3.844Z" transform="translate(-654.783 -187.026)" fill="#212720"/>
    <path id="Tracciato_489" data-name="Tracciato 489" d="M1129.669,229.153c-4.653-3.191.651-8.19,2.735-4.809-1.536-.021-3.285-.811-3.71,1.389a1.9,1.9,0,0,0,3.131,1.848L1130.5,226.5l1.991-.345c.358,1.375.468,2.452-.99,3Z" transform="translate(-943.171 -186.673)" fill="#212720"/>
    <path id="Tracciato_490" data-name="Tracciato 490" d="M1237.134,229.251c-.172-1.91-.344-3.82-.533-5.917,1.929.121,6.606.435,3.457,3.457l.74,2.461h-.61a5.81,5.81,0,0,0-2.231-2.5l-.516,2.5Zm.69-2.941c2.763-.974,2.566-1.415,0-2.332Z" transform="translate(-1034.15 -186.77)" fill="#212720"/>
    <path id="Tracciato_491" data-name="Tracciato 491" d="M1349.964,229.375c-.077-1.553-.849-4.672.184-5.893a1.639,1.639,0,0,1,.53,2c1.29-.315,1.566-2.185,3.383-1.893l-2.333,2.466,2.2,3.316h-.916l-2.248-2.728c-.083,1.165-.139,1.947-.195,2.728Z" transform="translate(-1128.662 -186.895)" fill="#212720"/>
    <path id="Tracciato_492" data-name="Tracciato 492" d="M1390.388,230.444c-.157-1.912-.315-3.824-.468-5.684h3.785q.005.235.011.469l-2.621.253v1.307l2.222.348c0,.153.005.306.008.459l-2.214.351c-.033.38-.074.844-.135,1.531.573,0,3.516-.413,2.464.966Z" transform="translate(-1162.369 -187.963)" fill="#212720"/>
    <path id="Tracciato_493" data-name="Tracciato 493" d="M930.013,230.151c-.137-1.88-.275-3.76-.42-5.741h3.76q.023.244.046.488l-2.6.3c-.037.38-.078.8-.128,1.313l2.324.321q.02.224.04.449l-2.24.375v1.164c.713,1.009,2.49-.688,2.58,1.336Z" transform="translate(-777.405 -187.671)" fill="#212720"/>
    <path id="Tracciato_494" data-name="Tracciato 494" d="M1469.767,228.907a1.2,1.2,0,0,1-.893-1.165c1.106-.179,1.133.189,2.423-.156-.6-1.191-2.66-1.808-2.515-3.216.179-1.736,2.469-1.89,3.39-.57a10.544,10.544,0,0,1-2.408.457,19.514,19.514,0,0,0,2.75,2.526v2.125Z" transform="translate(-1228.314 -186.426)" fill="#212720"/>
    <path id="Tracciato_495" data-name="Tracciato 495" d="M888.277,229.4c-4.388-2.467-.8-8.265,2.963-4.825-1.607.111-3.375-.909-4.062,1.208-.918,2.825,2.187,2.381,3.788,2.3l.1.361-1.263.961Z" transform="translate(-741.164 -186.922)" fill="#212720"/>
    <path id="Tracciato_496" data-name="Tracciato 496" d="M850.351,229.045l-1.047-1.075.27-.328a1.8,1.8,0,0,0,2.363-.005c-.454-.949-2.661-1.914-2.529-3.1.187-1.693,2.321-1.787,3.344-.862l-.087.442a2.648,2.648,0,0,0-2.3.243c1.023,1.925,4.264,2.325,1.514,4.689Z" transform="translate(-710.26 -186.564)" fill="#212720"/>
    <path id="Tracciato_497" data-name="Tracciato 497" d="M635.264,228.938c-.143-1.877-.285-3.753-.44-5.793,1.443-.132,2.645-.4,3.794.136q.009.23.018.46l-2.629.225V225.5l2.274.341q0,.237.007.475l-2.178.355-.542,2.27Z" transform="translate(-530.893 -186.458)" fill="#212720"/>
    <path id="Tracciato_498" data-name="Tracciato 498" d="M1057.671,229.367a11.89,11.89,0,0,1,.248-5.895,13.7,13.7,0,0,1,.363,5.895Z" transform="translate(-884.302 -186.886)" fill="#212720"/>
    <path id="Tracciato_499" data-name="Tracciato 499" d="M1279.276,228.521c-.573-1.879-.362-5.281.611-6.06v6.06Z" transform="translate(-1069.575 -186.041)" fill="#212720"/>
    <path id="Tracciato_500" data-name="Tracciato 500" d="M827.948,228.425c-.578-1.789-.377-5.271.611-6.079v6.079Z" transform="translate(-692.131 -185.945)" fill="#212720"/>
    <path id="Tracciato_501" data-name="Tracciato 501" d="M.954,24.364c8.681-.771,24.369-1.128,23.491,11.467a10.49,10.49,0,0,1-6.64,9.143C13.54,46.648,5.351,46.718.87,45.768c.177-.788,2.235-1.2,2.714-2.478.823-2.2.118-5.825.118-8.161,0-3.92,1.453-8.9-2.748-10.765m9.238.631c0,5.506-.234,11.07.013,16.571.083,1.844-.091,3.224,2,3.695a4.009,4.009,0,0,0,3.619-1.421c2.755-3.235,2.152-10.977,1.064-14.7-1-3.416-3.137-4.641-6.7-4.14" transform="translate(-0.728 -20.111)" fill="#212720"/>
    <path id="Tracciato_502" data-name="Tracciato 502" d="M616.41,25.865h-8.2c-.052-.465-.111-.985-.194-1.718-5.364,5.662-11.768-.457-11.681-6.408.1-6.862,5.428-9.577,11.639-8.358,0-3.087,1.353-7.435-2.375-8.3q.017-.214.035-.427l8.173-.42c.41,5.354.108,10.841.106,16.212,0,3.655-1.267,7.673,2.5,9.422m-8.363-8.515c0-2.174,1.091-6.8-2-7.457-3.364-.712-3.905,4.53-3.955,6.753-.052,2.344.408,7.332,3.691,7.449,3.411.122,2.265-4.55,2.265-6.745" transform="translate(-498.704 -0.193)" fill="#212720"/>
    <path id="Tracciato_503" data-name="Tracciato 503" d="M1275.487,9.122c0-3,1.271-7.391-2.392-8.331q.01-.192.019-.385L1281.37,0V15.634c0,3.573-1.457,8.313,2.258,10.115h-7.846c-.085-.554-.165-1.071-.207-1.341-2.975,1.039-5.974,2.378-8.867.331-2.5-1.77-3.1-5.263-2.862-8.11.544-6.453,5.851-8.567,11.64-7.507m.035,8.034c0-2.21,1.1-6.937-2.1-7.523-3.31-.607-3.8,4.625-3.845,6.8-.053,2.315.353,7.074,3.489,7.412,3.566.384,2.455-4.51,2.454-6.69" transform="translate(-1056.895)" fill="#212720"/>
    <path id="Tracciato_504" data-name="Tracciato 504" d="M935.336,35.626h10.288c-3.281.984-1.95,7.448-2.125,10-1.428-1.793-4.376,0-6.093.3a13.337,13.337,0,0,1-7.514-.582,11.067,11.067,0,0,1-2.152-19.335c4.329-3.057,9.508-1.6,14.44-1.6v7.953l-.174.093c-1.116-3.069-4-9.84-8.368-7.693C929.8,26.65,929.579,34.431,929.9,38c.232,2.555,1.274,9.486,5.706,7.509,3.653-1.63,1.538-7.744-.273-9.88" transform="translate(-771.886 -20.123)" fill="#212720"/>
    <path id="Tracciato_505" data-name="Tracciato 505" d="M1082.874,72.344h-7.766V69.977l-.421-.325c-2.193,4.008-8.512,4.162-10.013-.394-1.507-4.573,2.238-10.747-2.887-13.314h8.284c0,3.4-.806,8.083.013,11.431.564,2.307,2.537,4.089,4.489,1.438,1.094-1.486.91-7.936.465-9.8-.58-2.433-.69-1.493-2.59-3.047h8.125c.178,3.768.06,7.559.068,11.331.006,2.585-.339,3.9,2.233,5.047" transform="translate(-887.955 -46.785)" fill="#212720"/>
    <path id="Tracciato_506" data-name="Tracciato 506" d="M393.906,65.217c.007,10.773-17.267,11.217-17.873.493-.643-11.376,17.865-11.963,17.873-.493m-6.166.162c-.2-1.929.4-8.065-2.736-8.1-3.2-.033-2.709,6.056-2.706,7.964s-.5,7.89,2.64,7.867c3.118-.022,2.578-5.764,2.8-7.733" transform="translate(-314.457 -47.578)" fill="#212720"/>
    <path id="Tracciato_507" data-name="Tracciato 507" d="M222.479,19.639l-1.719-.153c1.857-2.932,5.61-8.758,9.319-9.412,2.556-.451,8.272,1.752,6.271,5.256a2.8,2.8,0,0,1-3.747.873c-1.6-1.018-.762-2.552-1.433-3.915-2.455-4.986-2.808,4.014-2.808,5.531l3.3.195c-.247,2.1-1.934,1.336-3.263,1.662-.2,4.179-2.251,12.579,2.589,14.284H220.2c4.25-.643,2.283-11.446,2.283-14.32" transform="translate(-184.146 -8.376)" fill="#212720"/>
    <path id="Tracciato_508" data-name="Tracciato 508" d="M300.532,33.941c4.19-1.733,2.452-10.574,2.2-14.3l-2-.231c2.387-2.708,5.311-7.818,8.829-9.139,2.642-.992,8.511.86,7.256,4.568a2.521,2.521,0,0,1-3.663,1.387c-2.058-1.033-.678-3.071-1.744-4.376-2.945-3.6-2.672,4.242-2.672,6l3.214.143c-.218,2.1-1.888,1.372-3.223,1.662a72.32,72.32,0,0,0-.056,11.054c.238,2.2.425,2.515,2.653,3.236Z" transform="translate(-251.33 -8.366)" fill="#212720"/>
    <path id="Tracciato_509" data-name="Tracciato 509" d="M1403.678,63.424h-10.532c-.148,6.34,7,7.714,10.564,2.989-1.143,10.146-17.038,8.508-16.726-1.624.3-9.581,16.162-11.615,16.694-1.365m-10.743-.73h5.1c-.156-1.585.2-5.455-2.15-5.646-2.589-.21-2.6,3.965-2.948,5.646" transform="translate(-1159.909 -47.346)" fill="#212720"/>
    <path id="Tracciato_510" data-name="Tracciato 510" d="M772.2,64.478c1.238,2.384,4.957,9.015,8.525,7.4,5.773-2.617-4.655-6.062-6.026-6.927-4.06-2.56-3.43-6.98.977-8.7a10.386,10.386,0,0,1,7.171-.148c2.536,1.128,1.9,2.669,2.079,5.54l-.348.115c-.908-1.6-6.726-8.9-8.165-4.09-1.011,3.382,7.543,4.442,9.124,6.471,3.109,3.991-1.444,8.071-5.4,8.414-1.686.146-6.229-.2-7.43-1.464-1.3-1.366-.851-4.7-.943-6.5l.432-.112" transform="translate(-645.417 -46.435)" fill="#212720"/>
    <path id="Tracciato_511" data-name="Tracciato 511" d="M501.715,71.347H491.259l-.04-.235c3.189-1.021,2.31-3.314,2.315-6.439,0-2.922.814-6.17-2.577-7.255l8.14-2.474v4.238c1.293-2.012,5.908-7.516,7.7-2.41a2.8,2.8,0,0,1-1.674,3.518c-1.71.516-3.093-1.192-4.331-2.11-1.415,2.271-3.093,12.844,1.1,12.735l-.172.431" transform="translate(-410.58 -45.712)" fill="#212720"/>
    <path id="Tracciato_512" data-name="Tracciato 512" d="M150.831,58.779l8.416-2.429c0,3.108-1.859,15.609,2.12,16.359H151.108c.049-.572,1.573-.606,1.976-1.181.752-1.072.378-3.308.387-4.444.021-2.752.882-7.338-2.64-8.3" transform="translate(-126.138 -47.125)" fill="#212720"/>
    <path id="Tracciato_513" data-name="Tracciato 513" d="M1193.869,58.485l8.457-2.446c0,2.984-2,16.155,2.45,16.079l-.326.346h-10.266l-.053-.19c3.122-1.213,2.349-3.282,2.344-6.469,0-2.839.754-6.231-2.6-7.32" transform="translate(-998.414 -46.865)" fill="#212720"/>
    <path id="Tracciato_514" data-name="Tracciato 514" d="M168.027,12.226c-.008,4.388-6.8,4.4-6.857.015-.056-4.342,6.865-4.437,6.857-.015" transform="translate(-134.784 -7.482)" fill="#212720"/>
    <path id="Tracciato_515" data-name="Tracciato 515" d="M1211.127,11.872c.044,4.431-6.716,4.466-6.833.1-.116-4.325,6.789-4.564,6.833-.1" transform="translate(-1007.131 -7.216)" fill="#212720"/>
    <path id="Tracciato_516" data-name="Tracciato 516" d="M725.942,28.45c1.236-3.049-.133-2.818-1.675-4.9-1.182-1.6-1.823-3.744.608-4.863,2.26-1.04,4.109.853,4.355,2.992.287,2.508-1.336,5.178-2.993,6.917l-.3-.143" transform="translate(-604.814 -15.38)" fill="#212720"/>
  </g>
</svg>
