<svg id="Page-1" xmlns="http://www.w3.org/2000/svg" width="193.005" height="22.356" viewBox="0 0 193.005 22.356">
  <g id="Artboard-1" transform="translate(0 0)">
    <path id="Shape" d="M-56.237,256.72a1.44,1.44,0,0,1-1.995.354,1.44,1.44,0,0,1-.354-1.995c1-1.448,1.8-2.509,2.509-3.442.418.837.9,1.737,1.416,2.767a27.247,27.247,0,0,1-1.576,2.316m.933-14.671a.865.865,0,0,1,.869.869,4.276,4.276,0,0,1-1,2.445,6.366,6.366,0,0,1-.74-2.027.94.94,0,0,1,.869-1.287m8.043,7.271h-4.118l-1.094,1.705c-.418-.772-.836-1.576-1.287-2.381,1.512-1.995,2.542-3.668,2.542-5.695a4.092,4.092,0,0,0-4.086-4.086,4.092,4.092,0,0,0-4.086,4.086c0,1.383.193,2.22,1.705,5.405-1.287,1.576-3.089,3.829-3.925,4.922a4.9,4.9,0,0,0,1.223,6.949,4.915,4.915,0,0,0,6.949-1.19c.129-.225.354-.579.643-1,.45.869.9,1.77,1.448,2.8h4.215s-1.448-2.638-3.378-6.274C-49.191,252.313-47.743,250.028-47.261,249.321ZM57.527,239.154l-4.569,7.593-4.472-7.593h-4.6l6.885,11.035v10.585h3.764V250.511l7.271-11.357Zm-176.6,0H-131.2v3.764h4.15v17.856h3.764V242.918h4.215Zm149.572,0H18.372v3.764h4.215v17.856h3.764V242.918H30.5Zm-143.2,3.764a3.439,3.439,0,0,0-1.19.869,4.239,4.239,0,0,0-1.158,2.96v6.435a4.456,4.456,0,0,0,.676,2.349,3.9,3.9,0,0,0,1.673,1.48,3.66,3.66,0,0,0,1.448.322,3.18,3.18,0,0,0,1.448-.322,3.441,3.441,0,0,0,1.19-.869,4.239,4.239,0,0,0,1.158-2.96v-6.435a4.456,4.456,0,0,0-.676-2.349,3.9,3.9,0,0,0-1.673-1.48,3.66,3.66,0,0,0-1.448-.322A3.423,3.423,0,0,0-112.7,242.918Zm1.416,18.21a7.243,7.243,0,0,1-2.992-.643,8.009,8.009,0,0,1-2.413-1.705,8.143,8.143,0,0,1-2.188-5.566v-6.467a7.966,7.966,0,0,1,4.6-7.3,7.133,7.133,0,0,1,2.992-.643,7.243,7.243,0,0,1,2.992.643,8.01,8.01,0,0,1,2.413,1.705,8.143,8.143,0,0,1,2.188,5.566v6.435a7.966,7.966,0,0,1-4.6,7.3A7.27,7.27,0,0,1-111.285,261.128Zm87.929-18.21a3.439,3.439,0,0,0-1.19.869,4.239,4.239,0,0,0-1.158,2.96v6.435a4.456,4.456,0,0,0,.676,2.349,3.9,3.9,0,0,0,1.673,1.48,3.66,3.66,0,0,0,1.448.322,3.18,3.18,0,0,0,1.448-.322,3.441,3.441,0,0,0,1.19-.869,4.239,4.239,0,0,0,1.158-2.96v-6.435a4.456,4.456,0,0,0-.676-2.349,3.9,3.9,0,0,0-1.673-1.48,3.66,3.66,0,0,0-1.448-.322A3.66,3.66,0,0,0-23.356,242.918Zm1.48,18.21a7.243,7.243,0,0,1-2.992-.643,8.009,8.009,0,0,1-2.413-1.705,8.143,8.143,0,0,1-2.188-5.566v-6.467a7.966,7.966,0,0,1,4.6-7.3,7.133,7.133,0,0,1,2.992-.643,7.243,7.243,0,0,1,2.992.643,8.01,8.01,0,0,1,2.413,1.705,8.143,8.143,0,0,1,2.188,5.566v6.435a7.966,7.966,0,0,1-4.6,7.3A7.27,7.27,0,0,1-21.876,261.128Zm-12.708-7.561a4.309,4.309,0,0,1-1.223,2.67,3.957,3.957,0,0,1-1.158.8,3.332,3.332,0,0,1-1.383.29,3.18,3.18,0,0,1-1.448-.322,3.7,3.7,0,0,1-1.673-1.48,4.456,4.456,0,0,1-.676-2.349v-6.435a4.239,4.239,0,0,1,1.158-2.96,3.766,3.766,0,0,1,1.19-.869,3.66,3.66,0,0,1,1.448-.322,2.958,2.958,0,0,1,1.416.322,3.7,3.7,0,0,1,1.673,1.48,4.456,4.456,0,0,1,.676,2.349h3.764a8,8,0,0,0-2.188-5.566,7.152,7.152,0,0,0-2.413-1.705,7.133,7.133,0,0,0-2.992-.643,7.243,7.243,0,0,0-2.992.643,7.95,7.95,0,0,0-4.6,7.3v6.435a8,8,0,0,0,2.188,5.566,7.152,7.152,0,0,0,2.413,1.705,7.133,7.133,0,0,0,2.992.643,7.708,7.708,0,0,0,2.863-.579,7.926,7.926,0,0,0,4.7-6.853v-.1h-3.732v-.032Zm28.57,7.561A7.085,7.085,0,0,1-11,259.069a7.05,7.05,0,0,1-2.059-4.987v-14.96H-9.3v14.993a3.264,3.264,0,0,0,.933,2.284,3.207,3.207,0,0,0,2.284.933A3.264,3.264,0,0,0-3.8,256.4a3.207,3.207,0,0,0,.933-2.284V239.122H.9v14.993A7.086,7.086,0,0,1-1.157,259.1,6.629,6.629,0,0,1-6.015,261.128Zm19.3-21.974v13.609L6.4,239.154H2.35v21.685H6.114V246.972L13.1,260.839h3.957V239.154Zm-81.2,0v13.609L-74.8,239.154h-4.054v21.685h3.764V246.972l6.982,13.867h3.957V239.154Zm106.879,3.764a2.67,2.67,0,0,1,0,5.341H35.617v-5.373h3.346Zm3.636,7.11c.225-.161.418-.322.611-.483a6.223,6.223,0,0,0,1.448-1.963,5.739,5.739,0,0,0,0-4.89c-1.03-2.316-3.41-3.507-6.113-3.507H31.756v21.685H35.52V251.6h2.96a2.187,2.187,0,0,1,2.413,2.413v6.853h3.764v-8.365A2.092,2.092,0,0,0,42.6,250.028ZM-84.2,239.154l-2.96,13-3.314-13h-3.282l-2.928,13-2.992-13h-4.376l5.405,21.652h3.314l3.024-13.48,3.41,13.48h3.443l5.5-21.652Z" transform="translate(131.2 -238.8)" fill="#212720"/>
  </g>
</svg>
