<svg xmlns="http://www.w3.org/2000/svg" width="122.822" height="44.965" viewBox="0 0 122.822 44.965">
  <path id="Yahoo_Finance" data-name="Yahoo Finance" d="M63.029,45.031V58.562H69.69V47.842a3.5,3.5,0,0,1,.52-1.457,1.889,1.889,0,0,1,1.978-.937,2.155,2.155,0,0,1,2.082,2.082V58.458h6.662V52.213a64.837,64.837,0,0,0-.1-6.87,6.617,6.617,0,0,0-1.978-4.372,5.958,5.958,0,0,0-3.435-1.665,9.039,9.039,0,0,0-2.394.1A5.436,5.436,0,0,0,70,41.076l-.52.416V31.5H62.82V45.031Zm70.779-13.323c-.208.416-6.974,16.758-6.974,16.758h7.911l3.539-8.431c1.978-4.684,3.539-8.535,3.539-8.535h-7.911Zm-85.351,7.7a8.991,8.991,0,0,0-3.747,1.353,9.56,9.56,0,0,0-4.163,6.87,11.689,11.689,0,0,0,.208,4.268,9.269,9.269,0,0,0,5.829,6.662,7.394,7.394,0,0,0,2.706.416,5.156,5.156,0,0,0,1.561-.1,6.049,6.049,0,0,0,3.123-1.665l.416-.416v1.665h6.453V39.723H54.389v1.665l-.312-.312a5.662,5.662,0,0,0-3.123-1.665,5.123,5.123,0,0,0-1.457-.1A5.339,5.339,0,0,1,48.456,39.411Zm42.467,0a10.687,10.687,0,0,0-5,2.082,10.021,10.021,0,0,0-3.435,9.16,9.53,9.53,0,0,0,7.286,8.015,10.741,10.741,0,0,0,2.706.312,9.71,9.71,0,0,0,4.684-1.041,9.3,9.3,0,0,0,5.2-7.286,13.631,13.631,0,0,0,0-2.914,9.5,9.5,0,0,0-1.769-4.372,15.071,15.071,0,0,0-1.769-1.874,9.72,9.72,0,0,0-5-2.082A13.639,13.639,0,0,0,90.924,39.411Zm21.234,0a9.384,9.384,0,0,0-4.892,2.082,9.973,9.973,0,0,0-1.769,1.874,10.781,10.781,0,0,0-1.769,4.372,13.638,13.638,0,0,0,0,2.914,9.729,9.729,0,0,0,7.806,8.223,7.437,7.437,0,0,0,2.186.208,9.317,9.317,0,0,0,4.788-1.145,9.793,9.793,0,0,0,5-10.825,9.621,9.621,0,0,0-8.431-7.7A13.64,13.64,0,0,0,112.157,39.411ZM19,39.827s1.769,4.268,3.955,9.472,3.955,9.472,3.955,9.472-.625,1.561-1.457,3.435S24,65.536,24,65.64a33.092,33.092,0,0,0,3.539,0h3.539l5.308-12.8c2.914-7.078,5.308-12.8,5.308-12.907a25.922,25.922,0,0,0-3.539,0H34.613l-2.186,5.412c-.937,2.914-1.874,5.412-1.874,5.412s-.937-2.5-2.186-5.412l-2.082-5.412H22.643C20.665,39.827,19,39.827,19,39.827Zm32.683,5.621a3.888,3.888,0,0,1,2.81,2.706,6.3,6.3,0,0,1,0,1.978,3.593,3.593,0,0,1-2.706,2.706,6.3,6.3,0,0,1-1.978,0,3.941,3.941,0,0,1-2.6-2.186,4.092,4.092,0,0,1,.312-3.643A3.97,3.97,0,0,1,51.683,45.448Zm41.53.1a3.543,3.543,0,0,1,2.914,2.81,5.66,5.66,0,0,1,0,1.874,3.8,3.8,0,0,1-2.6,2.706,6.3,6.3,0,0,1-1.978,0,4.106,4.106,0,0,1-2.394-1.978,3,3,0,0,1-.312-1.665,3.325,3.325,0,0,1,.312-1.457,4.177,4.177,0,0,1,1.353-1.665A3,3,0,0,1,93.214,45.552Zm21.13,0a3.456,3.456,0,0,1,2.706,2.186,3.325,3.325,0,0,1,.312,1.457,4.315,4.315,0,0,1-.312,1.665,3.819,3.819,0,0,1-2.394,1.978,6.3,6.3,0,0,1-1.978,0,3.625,3.625,0,0,1-2.6-2.706,6.3,6.3,0,0,1,0-1.978,3.661,3.661,0,0,1,3.539-2.81C113.823,45.448,114.135,45.448,114.343,45.552Zm14.156,4.58a4.423,4.423,0,0,0-3.851,3.539,6.3,6.3,0,0,0,0,1.978,4.39,4.39,0,0,0,3.331,3.227c.208,0,.625.1.937.1a4.237,4.237,0,0,0,3.123-1.249,4.009,4.009,0,0,0,1.249-3.123,4.109,4.109,0,0,0-1.978-3.643A3.725,3.725,0,0,0,128.5,50.131Zm-54.854,10.2A2.124,2.124,0,0,0,72.4,63.455a2.369,2.369,0,0,0,.937.833,2.054,2.054,0,0,0,.937.1,2.31,2.31,0,0,0,.937-.1,2.509,2.509,0,0,0,1.041-1.041,2.128,2.128,0,0,0-1.041-2.81,1.122,1.122,0,0,0-.833-.208A1.338,1.338,0,0,0,73.645,60.332Zm-5.621.1a4.2,4.2,0,0,0-3.435,3.331,3.209,3.209,0,0,0-.1,1.041v.729H63.029v3.123h1.457v7.494h3.955V68.659h2.706V65.536H68.441v-.312c.1-.729.416-1.249,1.041-1.353a2.342,2.342,0,0,1,1.457.1.806.806,0,0,0,.312.1V60.748l-.312-.1a3.814,3.814,0,0,0-1.665-.208A4.938,4.938,0,0,0,68.025,60.436Zm15.821,4.892a3.4,3.4,0,0,0-1.874,1.145l-.208.312V65.536H77.809V76.153h3.955V70.012a2.441,2.441,0,0,1,.52-1.041,1.433,1.433,0,0,1,1.874.208c.312.416.312.416.312,3.747v3.123h3.955V72.51c0-3.747,0-4.163-.208-4.892a3.018,3.018,0,0,0-.937-1.561,2.578,2.578,0,0,0-1.457-.833A11.954,11.954,0,0,0,83.846,65.328Zm9.888-.1a5.161,5.161,0,0,0-2.082.833A5.723,5.723,0,0,0,89.466,69.7a9.217,9.217,0,0,0,0,2.394,6.042,6.042,0,0,0,1.041,2.5,4.542,4.542,0,0,0,2.81,1.769,5.093,5.093,0,0,0,2.186-.1,4.529,4.529,0,0,0,1.561-.833l.416-.416v1.041h3.955V65.432H97.481v1.041l-.312-.1a3.619,3.619,0,0,0-2.082-1.041A5.935,5.935,0,0,0,93.734,65.224Zm15.093.1a3.2,3.2,0,0,0-1.874,1.145l-.208.208V65.432H102.79V76.049h3.955V73.03c0-3.227,0-3.227.208-3.747a1.145,1.145,0,0,1,1.041-.625,1.453,1.453,0,0,1,.937.312c.416.416.416.312.416,3.851v3.123H113.3V72.094c0-3.851,0-3.851-.1-4.268a9.833,9.833,0,0,1-.312-.937,2.5,2.5,0,0,0-.625-.833,3.983,3.983,0,0,0-1.145-.833A8.462,8.462,0,0,0,108.827,65.328Zm10.3,0a5.351,5.351,0,0,0-3.955,2.6c-.208.416-.416.937-.625,1.457a5.531,5.531,0,0,0-.1,1.457,3.97,3.97,0,0,0,.312,1.978,5.42,5.42,0,0,0,4.059,3.539,4.324,4.324,0,0,0,1.353.1,4.557,4.557,0,0,0,2.186-.416l.416-.208V72.3l-.312.208a2.39,2.39,0,0,1-1.457.416,2.653,2.653,0,0,1-1.353-.208,2.042,2.042,0,0,1-.937-.937,1.789,1.789,0,0,1-.1-.833,2.029,2.029,0,0,1,.1-.833,2.221,2.221,0,0,1,2.082-1.353,3.58,3.58,0,0,1,2.082.52V65.744l-.312-.1A6.581,6.581,0,0,0,119.131,65.328Zm8.951,0a5.766,5.766,0,0,0-3.747,8.847,5.029,5.029,0,0,0,3.331,2.186,14.62,14.62,0,0,0,3.019,0,5.308,5.308,0,0,0,2.706-1.457,11.414,11.414,0,0,0,.833-1.041s-.729-.312-1.665-.625l-1.665-.625-.208.208a1.69,1.69,0,0,1-.937.52,1.949,1.949,0,0,1-2.5-1.353v-.208h7.286v-.937a3.592,3.592,0,0,0-.1-1.249,5.548,5.548,0,0,0-1.457-2.914,4.8,4.8,0,0,0-2.706-1.353A7.68,7.68,0,0,0,128.083,65.328Zm-55.79,5.517v5.308h3.955V65.536H72.292Zm57.352-2.6a2.608,2.608,0,0,1,.729.416,1.054,1.054,0,0,1,.416.729V69.6h-1.769c-1.978,0-1.874,0-1.665-.416A1.986,1.986,0,0,1,129.644,68.242Zm-33.62.52a2.124,2.124,0,0,1,.1,4.059,3.439,3.439,0,0,1-1.457,0,1.966,1.966,0,0,1-1.353-1.353,1.771,1.771,0,0,1-.1-.729,1.122,1.122,0,0,1,.208-.833A2.255,2.255,0,0,1,96.024,68.763Z" transform="translate(-19 -31.5)" fill="#212720" fill-rule="evenodd"/>
</svg>
