<svg id="mens-journal-seeklogo" xmlns="http://www.w3.org/2000/svg" width="123.777" height="26.643" viewBox="0 0 123.777 26.643">
  <path id="Tracciato_431" data-name="Tracciato 431" d="M13.013,26.4H9.267V11.132H9.2c-.763,2.151-1.6,4.3-2.428,6.522H6.075c-.833-2.151-1.6-4.3-2.428-6.591v15.4H-.1C-.031,17.584-.031,8.842-.031.1H3.022C4.2,3.153,5.312,6.136,6.491,9.189,7.671,6.136,8.85,3.083,9.96.1h3.053Z" transform="translate(0.1 0.039)" fill="#212720"/>
  <path id="Tracciato_432" data-name="Tracciato 432" d="M40.022,11.487V-.031H43.56v26.3H40.716a1.325,1.325,0,0,1-.208-.555c0-.347-.208-.694-.208-1.041a5.78,5.78,0,0,0-.278-1.041c-.139-.347-.069-.694-.278-.971A10.144,10.144,0,0,0,39.4,21.27a8.116,8.116,0,0,0-.347-1.388,14.047,14.047,0,0,0-.624-2.29,9.474,9.474,0,0,0-.486-2.012,14.046,14.046,0,0,0-.624-2.29,1.76,1.76,0,0,1-.139-.833h-.069V26.2H33.5V-.1h3.4a1.469,1.469,0,0,1,.208.486,12.083,12.083,0,0,0,.347,1.526,11.485,11.485,0,0,0,.416,1.457c.139.416.208.763.347,1.179A7.258,7.258,0,0,0,38.5,5.728c.278.694.347,1.457.624,2.151a7.119,7.119,0,0,1,.278.971c.069.486.278.971.416,1.526,0,.139.069.208.069.347,0,.069.139.208.069.278C39.744,11.279,39.952,11.348,40.022,11.487Z" transform="translate(-10.188 0.1)" fill="#212720"/>
  <path id="Tracciato_433" data-name="Tracciato 433" d="M138.369,12.45V26.4H134.9V.1h3.4c1.041,3.816,2.012,7.632,3.053,11.448h.069V.1h3.608V26.4h-2.914c-1.179-4.649-2.359-9.3-3.608-14.015C138.438,12.381,138.369,12.381,138.369,12.45Z" transform="translate(-41.235 0.039)" fill="#212720"/>
  <path id="Tracciato_434" data-name="Tracciato 434" d="M126.94,14.362c.833,4.024,1.665,7.979,2.5,11.934h-3.816c-.763-3.885-1.6-7.7-2.359-11.656h-.416V26.3H119.1V0h6.938a4.356,4.356,0,0,1,1.318.208,2.11,2.11,0,0,1,1.457,1.665,2.026,2.026,0,0,1,.139.624c0,.208.069.416.069.694v7.771a14.306,14.306,0,0,1-.208,1.8,2.465,2.465,0,0,1-.278.624,2,2,0,0,1-1.318.9C127.148,14.223,127.009,14.293,126.94,14.362ZM122.847,3.4v7.84h1.943l.416-.624V4.649A2.242,2.242,0,0,0,125,3.538a1,1,0,0,0-.486-.139Z" transform="translate(-36.397 0.069)" fill="#212720"/>
  <path id="Tracciato_435" data-name="Tracciato 435" d="M97.563,13.113v10.2a2.991,2.991,0,0,1-1.179,2.5,2.433,2.433,0,0,1-.971.416c-.208.069-.347.069-.555.139H90.694a2.87,2.87,0,0,1-1.318-.347,2.522,2.522,0,0,1-1.457-1.873,2.6,2.6,0,0,1-.069-.694,23.371,23.371,0,0,1-.069-3.816V4.094a7.616,7.616,0,0,1,.139-1.8,2.649,2.649,0,0,1,.416-1.11,3.125,3.125,0,0,1,.624-.694,3.118,3.118,0,0,1,.833-.416C90,.069,90.347,0,90.625,0h4.094a5.531,5.531,0,0,1,1.041.208,2.218,2.218,0,0,1,1.6,1.526,3.076,3.076,0,0,1,.208,1.388Q97.563,8.118,97.563,13.113Zm-3.816,9.644c0-.208.069-.416.069-.624V3.816L93.4,3.4H92.29a1.141,1.141,0,0,0-.694.139c0,.347-.208.624-.208.971v13.6a24.325,24.325,0,0,0,.139,4.51c.069.139.208.208.278.278h1.6C93.539,22.9,93.608,22.827,93.747,22.757Z" transform="translate(-26.794 0.069)" fill="#212720"/>
  <path id="Tracciato_436" data-name="Tracciato 436" d="M103.5-.031h3.747V22.588l.278.278h1.665l.416-.416V-.031l.069-.069h3.747V23.143a4.137,4.137,0,0,1-.555,1.943,2.785,2.785,0,0,1-1.11.9,4.357,4.357,0,0,1-1.318.208h-3.885a5.531,5.531,0,0,1-1.041-.208,2.609,2.609,0,0,1-1.735-1.943,4.915,4.915,0,0,1-.069-.971C103.5,15.441,103.5,7.74,103.5-.031Z" transform="translate(-31.621 0.1)" fill="#212720"/>
  <path id="Tracciato_437" data-name="Tracciato 437" d="M153.4,0h4.579a.416.416,0,0,1,.416.208V.9c0,.208.069.416.069.694,0,.208-.069.486.139.694v.069c.069.555.069,1.041.139,1.6a2.053,2.053,0,0,0,.139.694c0,.208-.069.486.139.694v.139c.069.486.069,1.041.139,1.526a3.054,3.054,0,0,0,.139.694c0,.208-.069.486.139.694v.069a12.464,12.464,0,0,0,.139,1.526c0,.278.069.486.069.763,0,.208-.069.486.139.694v.139c.069.486.069,1.041.139,1.526a3.054,3.054,0,0,0,.139.694c0,.208-.069.486.139.694v.069a12.461,12.461,0,0,0,.139,1.526c0,.208.069.486.069.694s-.069.486.139.694v.069c.069.486.069,1.041.139,1.526a2.052,2.052,0,0,0,.139.694c.069.208-.139.486.139.763v.139c.069.486.069,1.041.139,1.526a3.054,3.054,0,0,0,.139.694c0,.208-.069.486.139.694v.139a11.346,11.346,0,0,0,.139,1.526,8.4,8.4,0,0,1,.069,1.318h-3.538a17.008,17.008,0,0,0-.139-1.873c0-.208-.069-.486-.069-.694a2.324,2.324,0,0,0,0-.694,10.4,10.4,0,0,1-.139-1.526h-3.053a4.5,4.5,0,0,0-.139,1.388c0,.208-.139.486-.139.694,0,.278.069.486-.069.694v.069c-.069.624-.069,1.249-.139,1.873h-3.469c0-.208-.069-.347.069-.555v-.069c.069-.486.069-.9.139-1.388a2.053,2.053,0,0,1,.139-.694c.069-.208-.139-.486.139-.694v-.069c.069-.486.069-.9.139-1.388a3.054,3.054,0,0,1,.139-.694c.069-.208-.069-.416.069-.624.069-.069,0-.139,0-.208a10.353,10.353,0,0,1,.139-1.457c.139-.416,0-.9.208-1.318a8.539,8.539,0,0,0,.139-1.388,2.053,2.053,0,0,1,.139-.694c0-.278-.069-.486.139-.694V14.5c.069-.486.069-.9.139-1.388a3.053,3.053,0,0,1,.139-.694c.069-.208-.069-.416.139-.624v-.139c.069-.486.069-.971.139-1.457a3.054,3.054,0,0,1,.139-.694c0-.208-.069-.486.139-.694V8.742c.069-.486.069-.9.139-1.388a2.053,2.053,0,0,1,.139-.694c.069-.208-.069-.486.139-.694V5.9c.069-.486.069-.9.139-1.388a3.054,3.054,0,0,1,.139-.694c.069-.208-.069-.416.069-.624V3.122a9.4,9.4,0,0,1,.139-1.388c0-.208.069-.416.069-.624V.486C153.259.347,153.329.208,153.4,0Zm3.538,18.039a4.775,4.775,0,0,1-.139-.9c-.069-.347.069-.694-.069-.971a2.8,2.8,0,0,1,0-.763c0-.278-.069-.486-.069-.763a4.268,4.268,0,0,0-.069-.971,2.326,2.326,0,0,1,0-.694c0-.208-.069-.416-.069-.694a5.25,5.25,0,0,0-.069-1.041,2.8,2.8,0,0,1,0-.763,2.952,2.952,0,0,0-.139-.763,4.579,4.579,0,0,0-.069-.971,3.343,3.343,0,0,1,0-.833c0-.278-.139-.555-.139-.833a8.543,8.543,0,0,0-.139-1.388,2.37,2.37,0,0,0-.208,1.179c0,.139.069.278,0,.347-.208.278-.069.555-.069.763-.069.278-.069.555-.139.833s0,.624-.069.9a3.33,3.33,0,0,0,0,.833c0,.278-.139.486-.139.763.069.624-.208,1.179-.069,1.735v.069a.76.76,0,0,0-.069.763c0,.278-.139.555-.139.833a5.251,5.251,0,0,1-.069,1.041,15.782,15.782,0,0,0-.139,1.8c0,.139-.069.278-.069.416A18.28,18.28,0,0,0,156.937,18.039Z" transform="translate(-46.065 0.069)" fill="#212720"/>
  <path id="Tracciato_438" data-name="Tracciato 438" d="M51.9,18.941h3.747v3.192c0,.208.069.416.069.555a1.074,1.074,0,0,0,.763.208h1.249c.069-.069.139-.208.278-.347V18.386a2.418,2.418,0,0,0-.416-1.179,6.068,6.068,0,0,0-.555-.694c-.347-.416-.763-.833-1.11-1.249-.555-.624-1.11-1.249-1.6-1.873-.486-.486-.9-1.041-1.388-1.6a4.242,4.242,0,0,1-.9-1.526,3.005,3.005,0,0,1-.069-.347c0-2.428-.069-4.857,0-7.285A2.637,2.637,0,0,1,53.843.069c.416,0,.833-.069,1.318-.069h3.677a3.158,3.158,0,0,1,1.388.347,2.5,2.5,0,0,1,1.388,1.735,6.731,6.731,0,0,1,.069,1.179V7.493H57.936V3.816L57.52,3.4h-1.6l-.347.347V8.534c.139.278.347.624.555.971,0,.069.069.069.069.139.416.416.763.833,1.179,1.249.208.208.347.416.555.624s.486.347.555.624l.069.069a10.664,10.664,0,0,1,1.179,1.318c.486.624,1.041,1.11,1.457,1.735a2.284,2.284,0,0,1,.416,1.318v6.869a2.809,2.809,0,0,1-.763,1.873,3,3,0,0,1-1.526.833,1.036,1.036,0,0,1-.694.208H55.022a3.467,3.467,0,0,1-2.151-.694,2.331,2.331,0,0,1-.694-1.11,4.357,4.357,0,0,1-.208-1.318V19.219C51.9,19.149,51.9,19.08,51.9,18.941Z" transform="translate(-15.822 0.069)" fill="#212720"/>
  <path id="Tracciato_439" data-name="Tracciato 439" d="M24.016,22.9h4.232v3.4H20.2V0h7.979V3.4h-4.3v7.84h3.261v3.4H23.877C24.016,17.415,24.016,20.121,24.016,22.9Z" transform="translate(-6.116 0.069)" fill="#212720"/>
  <path id="Tracciato_440" data-name="Tracciato 440" d="M78.067,0h3.747V23.312a4.9,4.9,0,0,1-.416,1.665,2.142,2.142,0,0,1-1.388,1.179,4.039,4.039,0,0,1-1.318.208H74.806a2.87,2.87,0,0,1-1.318-.347A2.522,2.522,0,0,1,72.1,24.492a3.542,3.542,0,0,1-.208-1.457V18.941h3.747v3.053a1.221,1.221,0,0,0,.416.9H77.72a1.138,1.138,0,0,0,.416-.971V.624A1.921,1.921,0,0,1,78.067,0Z" transform="translate(-21.937 0.069)" fill="#212720"/>
  <path id="Tracciato_441" data-name="Tracciato 441" d="M170.377,22.9h4.163a.415.415,0,0,1,.208.416V26.3H166.7V0h3.747C170.377,7.632,170.377,15.264,170.377,22.9Z" transform="translate(-50.971 0.069)" fill="#212720"/>
  <path id="Tracciato_442" data-name="Tracciato 442" d="M49.833,6H49V.1h1.943a1.251,1.251,0,0,1-.069.694,3.515,3.515,0,0,0-.139.9,3.659,3.659,0,0,1-.208.833c-.069.208-.069.486-.139.694s0,.347-.139.555c-.069.139,0,.347-.069.486-.139.139.069.416-.139.555a2.049,2.049,0,0,1-.139.9C49.9,5.789,49.833,5.928,49.833,6Z" transform="translate(-14.934 0.039)" fill="#212720"/>
</svg>
