<svg id="Raggruppa_24425" data-name="Raggruppa 24425" xmlns="http://www.w3.org/2000/svg" xmlns:xlink="http://www.w3.org/1999/xlink" width="91.333" height="26.643" viewBox="0 0 91.333 26.643">
  <defs>
    <clipPath id="clip-path">
      <rect id="Rettangolo_10975" data-name="Rettangolo 10975" width="91.333" height="26.643" fill="#212720"/>
    </clipPath>
  </defs>
  <g id="Raggruppa_24420" data-name="Raggruppa 24420" clip-path="url(#clip-path)">
    <path id="Tracciato_448" data-name="Tracciato 448" d="M613.691,0c.111.2.262.3.316.535a4.49,4.49,0,0,1,.01.932V3.722c0,1.386-.056,2.785.015,4.169.356.12,1.133-.41,1.486-.513a10.867,10.867,0,0,1,1.875-.347,6.049,6.049,0,0,1,3.444.473,6.008,6.008,0,0,1,3.1,5.621q0,2.038,0,4.076a27.465,27.465,0,0,1-.106,3.893,5.8,5.8,0,0,1-3.653,5.006,6.869,6.869,0,0,1-3.719.108,10.851,10.851,0,0,1-1.833-.555c-.579-.244-1.112-.6-1.683-.841a3.723,3.723,0,0,1-.891,1.224c-.754,0-1.509,0-2.263,0-.507,0-1.368.19-1.644-.376V.313L608.473,0Zm4.366,16.673c0-1.312,0-2.623,0-3.935a2.2,2.2,0,0,0-1.427-2.33,2.045,2.045,0,0,0-2.129.617c-.683.794-.49,1.9-.49,2.875,0,2.231.005,4.462,0,6.693a2.177,2.177,0,0,0,1.164,2.219,2.038,2.038,0,0,0,2.162-.307,2.918,2.918,0,0,0,.719-2.5c0-1.112,0-2.224,0-3.335" transform="translate(-549.647)" fill="#212720"/>
    <path id="Tracciato_449" data-name="Tracciato 449" d="M349.159,0c-.007.105.211.254.252.373a3.214,3.214,0,0,1,.035.935q0,1.143,0,2.286c0,1.433-.048,2.876.017,4.308a7.6,7.6,0,0,0,1.493-.528,10.689,10.689,0,0,1,1.441-.341,6.87,6.87,0,0,1,3.342.262,5.749,5.749,0,0,1,3.643,5.131c.124,1.33.031,2.705.031,4.041,0,1.308.061,2.633-.047,3.938-.187,2.265-1.1,4.639-3.342,5.561a7.523,7.523,0,0,1-4.006.25,8.164,8.164,0,0,1-1.926-.562,8.114,8.114,0,0,0-1.728-.807c-.2.386-.38.976-.826,1.145a5.672,5.672,0,0,1-1.8.046,5.534,5.534,0,0,1-1.781-.04c-.509-.2-.362-.858-.362-1.295q0-4.114,0-8.227t0-8.227c0-2.651-.092-5.322.022-7.971.11-.091.2-.134.231-.276Zm4.353,16.645c0-1.291.006-2.582,0-3.873a2.249,2.249,0,0,0-1.3-2.323,2.06,2.06,0,0,0-2.291.6c-.649.78-.484,1.911-.486,2.855,0,2.176-.022,4.354,0,6.53a2.384,2.384,0,0,0,.986,2.258,2.038,2.038,0,0,0,2.454-.239c.743-.712.645-1.685.643-2.629,0-1.059,0-2.118,0-3.177" transform="translate(-310.511)" fill="#212720"/>
    <path id="Tracciato_450" data-name="Tracciato 450" d="M793.13,90.907a9.461,9.461,0,0,1-3.461-.959,5.147,5.147,0,0,1-2.212-3.015,13.948,13.948,0,0,1-.331-4.13q0-2.221.01-4.443c.008-2.5.372-5.249,2.856-6.485a8.526,8.526,0,0,1,3.8-.746,21.751,21.751,0,0,1,4.036.142,5.634,5.634,0,0,1,3.454,1.69,5.086,5.086,0,0,1,1.01,1.826,17.782,17.782,0,0,0,.442,2.038V81.3l-.348.335h-7.478c-.754,0-1.392-.184-1.855.477,0,1.141-.09,2.329,0,3.466a1.879,1.879,0,0,0,1.582,1.751,1.85,1.85,0,0,0,2.079-1.4c.143-.7-.371-2.319.394-2.739h5.38c.068.116.119.26.241.324v1.57c-.159.079-.174.891-.2,1.059a8.313,8.313,0,0,1-.31,1.264,4.988,4.988,0,0,1-1.313,2.008c-1.2,1.065-2.677,1.2-4.175,1.487ZM796.749,78.4l-.021-.053c.088-1.4.223-3.717-1.784-3.726-2.059-.009-1.887,2.212-1.887,3.635l.234.332a4.494,4.494,0,0,0,1.55.115,4.69,4.69,0,0,0,1.644-.1l.048.057.216-.262" transform="translate(-711.401 -64.265)" fill="#212720"/>
    <path id="Tracciato_451" data-name="Tracciato 451" d="M0,76.4a.5.5,0,0,0,.14-.066,1.989,1.989,0,0,0,.166-.2c.146-.012.291-.033.436-.033q2.251,0,4.5,0c.137,0,.275.021.385.03a.658.658,0,0,1,.3.609q-.006,2.989,0,5.979,0,5.667,0,11.335a1.139,1.139,0,0,1-.037.387.6.6,0,0,1-.525.372.755.755,0,0,1-.115,0H.724A.653.653,0,0,1,.105,94.5L0,94.5V76.4" transform="translate(0 -68.783)" fill="#212720"/>
    <path id="Tracciato_452" data-name="Tracciato 452" d="M0,12.965l.1.009c.187-.341.538-.325.877-.33.544-.009,1.089,0,1.634,0a14.76,14.76,0,0,1,3.052.09c.349.263.27.705.269,1.09q0,.735,0,1.47c0,.764.283,1.826-.737,1.9-.949.066-1.925,0-2.876,0-.5,0-1,.028-1.5,0-.432-.023-.474-.183-.814-.348V12.965" transform="translate(0 -11.395)" fill="#212720"/>
    <path id="Tracciato_453" data-name="Tracciato 453" d="M96.623,90.684a.757.757,0,0,1-.755.472c-.591.043-1.2,0-1.8,0h-1.54a3.339,3.339,0,0,1-1.491-.091c-.367-.2-.3-.59-.3-.95q0-.89,0-1.781,0-1.59,0-3.18,0-3.307,0-6.615c0-.859.165-1.944-.5-2.614a1.459,1.459,0,0,0-2.1.073c-.553.655-.37,1.757-.37,2.548v3.313q0,3.313,0,6.627c0,.51,0,1.02,0,1.529,0,.4.091.9-.352,1.082a3.665,3.665,0,0,1-1.287.058H84.333c-.6,0-2.21.321-2.4-.462a6.223,6.223,0,0,1-.011-1.381q0-.831,0-1.662V80.235q0-1.854,0-3.707a36.137,36.137,0,0,1,.017-3.8c.274-.522,1.433-.286,1.908-.286a19.276,19.276,0,0,1,2.133.034c.383.308.447.8.784,1.126A12.05,12.05,0,0,1,91.2,72.1a6.346,6.346,0,0,1,4.464,1.149,9.413,9.413,0,0,1,6.087-1.035,4.5,4.5,0,0,1,3.694,4.218c.116,4.774,0,9.567,0,14.343-.533.682-1.881.383-2.664.383a12.7,12.7,0,0,1-2.972-.1c-.338-.352-.255-.89-.255-1.337q0-.889,0-1.778,0-1.714,0-3.428c0-2.285.008-4.571,0-6.856,0-.841-.081-1.759-1.015-2.067a1.451,1.451,0,0,0-1.817.844,3.526,3.526,0,0,0-.095,1.312c0,.591,0,1.182,0,1.772v11.17" transform="translate(-73.997 -65.117)" fill="#212720"/>
    <path id="Tracciato_454" data-name="Tracciato 454" d="M525.9,76.023l.248-.277c1.295-.11,2.622-.034,3.921-.034.413,0,1.292-.18,1.592.2.281.358.114,1.214.113,1.64q0,4.021,0,8.041c0,2.633.08,5.281,0,7.913-.015.467-.064.807-.567.913a10.41,10.41,0,0,1-1.994,0q-1.021,0-2.042,0c-.453,0-1.017.091-1.267-.387Z" transform="translate(-475.309 -68.39)" fill="#212720"/>
    <path id="Tracciato_455" data-name="Tracciato 455" d="M525.332,16.776c-.4-.3-.175-1.447-.175-1.874,0-.708-.018-1.419.014-2.126.267-.529.965-.388,1.451-.388h2.216c.517,0,1.5-.2,1.941.11.479.332.266,1.424.266,1.923a7.59,7.59,0,0,1-.028,2.067c-.186.586-.922.449-1.405.449H527.4c-.468,0-1.717.231-2.063-.16" transform="translate(-474.583 -11.141)" fill="#212720"/>
    <path id="Tracciato_456" data-name="Tracciato 456" d="M777.222,32.407V30.3c.822-.017,1.861-.011,1.764,1.128-.086,1.011-1.01.948-1.764.979m.921-.356c.682-.516.442-1.6-.505-1.4-.015.455-.011.918,0,1.4Z" transform="translate(-702.456 -27.382)" fill="#212720"/>
    <path id="Tracciato_457" data-name="Tracciato 457" d="M717.366,32.308c-.57-.141-.893-.329-.939-.96a1.047,1.047,0,0,1,.9-1.235.948.948,0,0,1,1.077,1.031c0,.7-.416,1-1.037,1.164m.32-.425.258-.24-.06-.044a1.178,1.178,0,0,0,.028-.883l-.3-.268h-.381l-.324.277a1.082,1.082,0,0,0,.042.962l.22.194Z" transform="translate(-647.505 -27.211)" fill="#212720"/>
    <path id="Tracciato_458" data-name="Tracciato 458" d="M912.08,32.277h-.427l-.562-.812a8.062,8.062,0,0,0-.055.809h-.328a8.986,8.986,0,0,1,.015-2.09,2.248,2.248,0,0,1,1.1.118c.338.426.264.852-.192,1.01-.169.214.356.746.474.912l-.029.053m-1.009-1.154a.443.443,0,0,0,.537-.247c0-.066-.007-.142-.011-.213l-.164-.148h-.362Z" transform="translate(-823.053 -27.269)" fill="#212720"/>
    <path id="Tracciato_459" data-name="Tracciato 459" d="M886.378,32.065a.615.615,0,0,0,.629-.018l.119-.13c.007-.509.014-1.036.021-1.578h.4a5.89,5.89,0,0,1-.108,1.769c-.17.209-.17.209-.77.407a1.527,1.527,0,0,1-.741-.337,3.222,3.222,0,0,1-.03-1.849h.315c.037.481-.167,1.341.166,1.736" transform="translate(-800.564 -27.411)" fill="#212720"/>
    <path id="Tracciato_460" data-name="Tracciato 460" d="M743.46,32.033a1.58,1.58,0,0,1-.838.506l-.462-.116-.189-.13c-.357-.437-.192-1.419-.153-1.94h.3c.448.4-.418,2.307.868,1.716a6.459,6.459,0,0,0,.159-1.717h.292a7.1,7.1,0,0,1,.025,1.681" transform="translate(-670.393 -27.432)" fill="#212720"/>
    <path id="Tracciato_461" data-name="Tracciato 461" d="M830.884,32.525c-.3-.089-.657-.091-.791-.572a12.77,12.77,0,0,1,.02-1.6h.314a5.154,5.154,0,0,0,.16,1.711.56.56,0,0,0,.717-.072,15.625,15.625,0,0,0,.114-1.649h.325a4.4,4.4,0,0,1,0,1.591c-.125.413-.484.5-.861.594" transform="translate(-750.226 -27.421)" fill="#212720"/>
    <path id="Tracciato_462" data-name="Tracciato 462" d="M932.1,30.4v.3h-.633a.8.8,0,0,0-.027.555h.644v.317l-.663.025v.543l.676.024c0,.11.009.2.014.316h-1.093a13.381,13.381,0,0,1,0-2.084Z" transform="translate(-841.417 -27.476)" fill="#212720"/>
    <path id="Tracciato_463" data-name="Tracciato 463" d="M810.7,32.062v.3a1.109,1.109,0,0,1-1.469-.579c0-1.059.291-1.489,1.4-1.489a.268.268,0,0,1,0,.385.7.7,0,0,0-.94.349c0,.854.159,1.031,1.013,1.031" transform="translate(-731.382 -27.383)" fill="#212720"/>
    <path id="Tracciato_464" data-name="Tracciato 464" d="M867.363,32.5l-.423.025c-.02-.609.006-1.189-.017-1.787H866.4v-.317h1.44l.08.239c-.176.131-.358.035-.54.1a15.564,15.564,0,0,0-.016,1.738" transform="translate(-783.054 -27.492)" fill="#212720"/>
    <path id="Tracciato_465" data-name="Tracciato 465" d="M690.6,30.377h.306c.053.581.024,1.171.024,1.754h.663c.005.118.009.213.015.338a7.78,7.78,0,0,1-1.019-.006,3.034,3.034,0,0,1-.053-1.036,2.929,2.929,0,0,1,.064-1.05" transform="translate(-624.091 -27.455)" fill="#212720"/>
    <path id="Tracciato_466" data-name="Tracciato 466" d="M854.769,32.134h.66c.006.125.011.224.017.34h-.985a10.54,10.54,0,0,1-.006-2.087h.315Z" transform="translate(-772.215 -27.464)" fill="#212720"/>
    <path id="Tracciato_467" data-name="Tracciato 467" d="M706.9,32.5l-.377.023a12.961,12.961,0,0,1-.015-2.1h.387c.011.694,0,1.372,0,2.076" transform="translate(-638.516 -27.502)" fill="#212720"/>
    <path id="Tracciato_468" data-name="Tracciato 468" d="M766.563,30.356h.278a9.024,9.024,0,0,1,0,2.089h-.278a14.352,14.352,0,0,1,0-2.089" transform="translate(-692.789 -27.436)" fill="#212720"/>
    <path id="Tracciato_469" data-name="Tracciato 469" d="M725.057,54.68v-.287a4.058,4.058,0,0,1,1.214.116v.3a3.349,3.349,0,0,1-1.214-.134" transform="translate(-655.309 -49.143)" fill="#212720"/>
  </g>
</svg>
