<svg id="New_Bloomberg_Logo" xmlns="http://www.w3.org/2000/svg" width="169.801" height="31.288" viewBox="0 0 169.801 31.288">
  <path id="Tracciato_470" data-name="Tracciato 470" d="M115-9.6h12.449a8.848,8.848,0,0,1,5.467,1.581,6.212,6.212,0,0,1,2.239,5.006,4.842,4.842,0,0,1-2.964,4.874v.132a6.08,6.08,0,0,1,4.15,6.06,7.445,7.445,0,0,1-2.766,6.125,9.465,9.465,0,0,1-5.8,1.515H115ZM126.2.28A2.093,2.093,0,0,0,128.5-1.96a2.1,2.1,0,0,0-2.371-2.174H121.85V.214H126.2Zm.593,9.814a2.437,2.437,0,0,0,2.635-2.569,2.4,2.4,0,0,0-2.635-2.569h-4.874v5.2h4.874Z" transform="translate(-115 9.6)" fill="#212720"/>
  <path id="Tracciato_471" data-name="Tracciato 471" d="M149.1-9.6h6.521V15.758H149.1Z" transform="translate(-126.64 9.6)" fill="#212720"/>
  <path id="Tracciato_472" data-name="Tracciato 472" d="M161,10.251C161,4.52,164.688.7,170.419.7s9.353,3.886,9.353,9.551c0,5.73-3.623,9.551-9.353,9.551S161,15.981,161,10.251Zm12.251,0c0-3.162-.988-5.138-2.964-5.138s-2.9,1.976-2.9,5.138.922,5.2,2.9,5.2C172.263,15.388,173.251,13.412,173.251,10.251Z" transform="translate(-130.702 6.084)" fill="#212720"/>
  <path id="Tracciato_473" data-name="Tracciato 473" d="M190.6,10.251C190.6,4.52,194.288.7,200.019.7s9.287,3.82,9.287,9.551-3.623,9.551-9.353,9.551C194.288,19.8,190.6,15.981,190.6,10.251Zm12.251,0c0-3.162-.988-5.138-2.964-5.138s-2.9,1.976-2.9,5.138.922,5.2,2.9,5.2C201.863,15.388,202.851,13.412,202.851,10.251Z" transform="translate(-140.806 6.084)" fill="#212720"/>
  <path id="Tracciato_474" data-name="Tracciato 474" d="M221,1.127h6.06v2.7h.132A5.741,5.741,0,0,1,232.658.6a5,5,0,0,1,4.874,3.1h.132a6,6,0,0,1,5.6-3.1c4.215,0,5.994,3.1,5.994,7.245V19.174h-6.323V8.965c0-1.844-.593-3.03-2.174-3.03s-2.371,1.449-2.371,3.425v9.814h-6.323V8.965c0-1.844-.593-3.03-2.174-3.03s-2.371,1.449-2.371,3.425v9.814H221Z" transform="translate(-151.182 6.118)" fill="#212720"/>
  <path id="Tracciato_475" data-name="Tracciato 475" d="M272.826,13.321h-.066v2.371H266.7V-9.6h6.323V-.511h.132a6,6,0,0,1,5.137-2.437c4.545,0,7.179,4.084,7.179,9.551,0,6.125-2.832,9.682-7.575,9.682A5.576,5.576,0,0,1,272.826,13.321Zm6.125-6.784c0-2.9-1.054-4.808-2.964-4.808-1.976,0-3.162,1.91-3.162,4.808s1.251,4.808,3.162,4.808S278.951,9.5,278.951,6.537Z" transform="translate(-166.782 9.6)" fill="#212720"/>
  <path id="Tracciato_476" data-name="Tracciato 476" d="M296.3,10.151C296.3,4.486,300.054.6,305.455.6a8.705,8.705,0,0,1,6.323,2.371c2.108,2.042,3.03,5.2,2.964,8.892H302.623c.263,2.239,1.317,3.425,3.227,3.425a2.469,2.469,0,0,0,2.5-1.713h6.125c-1.054,4.15-4.281,6.191-8.826,6.191C300.054,19.7,296.3,15.881,296.3,10.151Zm6.323-1.91h5.8c-.132-2.174-1.317-3.293-2.832-3.293C303.809,4.881,302.821,6.133,302.623,8.24Z" transform="translate(-176.886 6.118)" fill="#212720"/>
  <path id="Tracciato_477" data-name="Tracciato 477" d="M332.06,4.291h.132c1.317-2.5,3.03-3.491,5.2-3.491a1.966,1.966,0,0,1,1.054.2V6.53h-.132c-3.754-.659-5.928,1.12-5.928,5.2v7.575H326V1.2h6.06Z" transform="translate(-187.024 6.05)" fill="#212720"/>
  <path id="Tracciato_478" data-name="Tracciato 478" d="M345.729,19.206h6.125a2.447,2.447,0,0,0,2.569,1.515c2.042,0,2.766-1.251,2.766-3.162V16.242h-.132a5.412,5.412,0,0,1-4.347,2.042c-3.886,0-7.311-2.9-7.311-8.563,0-5.2,2.766-9.221,6.982-9.221A5.328,5.328,0,0,1,357.256,3h.132V1.027h6.06V16.7a8.351,8.351,0,0,1-2.5,6.455,9.512,9.512,0,0,1-6.389,1.976C349.681,25.2,346.322,23.224,345.729,19.206Zm11.724-9.748c0-2.239-1.054-4.084-2.9-4.084-1.778,0-2.9,1.581-2.9,4.084,0,2.437,1.12,4.15,2.9,4.15S357.453,11.829,357.453,9.458Z" transform="translate(-193.646 6.152)" fill="#212720"/>
</svg>
