<svg id="layer1" xmlns="http://www.w3.org/2000/svg" width="181.344" height="26.643" viewBox="0 0 181.344 26.643">
  <g id="g13580" transform="translate(0 0)">
    <path id="Fill-1" d="M816.344,39.045c0-1.937,6.679-2.585,6.679-2.585l-.094-1.937c-.974-.027-4.776.113-4.776-.9,0-1.328,5.818-1.652,7.857-1.724l-.419-3.1c-3.514.01-19.3.052-19.948,4.325-.349,2.307,4.2,2.852,4.2,2.852v.109s-5.952,1.1-5.952,3.981c0,5.878,20.531,4.232,25.845,2.769a13.792,13.792,0,0,0-.749-2.732c-.212-.11-4.522.528-7.942.436-2.782-.075-4.7-.518-4.7-1.491" transform="translate(-648.388 -23.226)" fill="#212720"/>
    <path id="Fill-4" d="M605.18,2.89c0,1.668-1.829,2.847-5.031,2.847-3.145,0-5.034-1.154-5.034-2.847C595.116,1,597.884,0,600.147,0c2.2,0,5.033.976,5.033,2.89" transform="translate(-480.001)" fill="#212720"/>
    <path id="Fill-7" d="M634.254,38.038a11.363,11.363,0,0,1-4.178-.386c-3.316-1.149-3.825-5.6.112-8.136L626.5,26.4c-6.5,2.5-7.836,2.683-8.444,2.822-.3-.884-1.712-2.368-4.7-2.19-1.627.1-4.045,1.01-4.745,2.674a2.686,2.686,0,0,0,.907,3.24c1.575,1.24,4.582.931,4.582.931-.946,3.966-9.192,6.679-9.192,2.428V29.007h-9.792v8.471c0,4.232,5.193,5.327,10.293,4.99,7.135-.471,11.148-4.566,12.611-8.986l3.481-.8s-4.764,6.209,1.18,9.032c3.392,1.611,9.628.369,12.134-.966a19.294,19.294,0,0,0-.561-2.708m-22.37-7.657c.064-1.058,2.7-1.33,2.855-.105,0,0-2.925,1.248-2.855.105" transform="translate(-480.001 -21.29)" fill="#212720"/>
    <path id="Fill-9" d="M464.358,49.4a12.878,12.878,0,0,1-2.99.027c-1.345-.329-1.432-1.335-1.432-2.674V39.594l-10.085,0v6.759c0,.8.067,2.737-2.762,2.737-1.272,0-2.724-.107-2.724-1.94V39.594H434.339l.009,8.611c0,4.909,8.235,6.411,16.7,3.206,0,0,3.96,3.13,13.863.829,0,0-.432-2.715-.548-2.837" transform="translate(-350.323 -31.936)" fill="#212720"/>
    <path id="Fill-11" d="M306.6,56.156l0-17.658h-9.177s.311,6.37-.172,7.608c-.82,2.691-7.433,2.309-7.431-.829,0-3.647,6.734-3.02,6.734-3.02l-.674-3.767s-15.564-1.448-16.309,6.871c-.167,5.8,10.163,8.216,17.8,5.362l0,6.886Z" transform="translate(-225.484 -30.968)" fill="#212720"/>
    <path id="Fill-14" d="M51.238,20.587c.923-.938.868-2.078.084-3.32-1.156-1.834-4.35-2.908-5.113-4.363a2.385,2.385,0,0,1,.176-2.335L46.213,9.8,35.437,10.99a3.116,3.116,0,0,0,.06,2.69c-7.784,8.336-20.408,8.411-20.744,5.473-.315-2.755,8.316-3.364,8.316-3.364L22.9,13.043s-5.814.457-5.9-1.332c-.09-1.845,5.348-2.442,8.5-2.478L24.7,4.8C14.486,4.692,4.943,6.941,4.066,10.8c-.263,1.157.509,3.192,4.721,4.041v.148S-.06,16.383,0,20.222c.053,3.415,7.684,4.931,13.072,4.969,10.918.076,16.674-3.542,16.674-3.542-1.526,4.174,10.429,4.678,18.728,1.682.4-.143,3.584,1.215,5.521,2.072,0,0,1.239-2.967,1.073-3.372-.151-.367-3.832-1.445-3.832-1.445M40.572,21.7c-1.075,1.324-5.282,1.311-4.987.444.317-.932,4.492-.7,4.987-.444m-8.1-1.418A46.444,46.444,0,0,0,37.6,16.4a11.626,11.626,0,0,1,3.264,2.864,17.676,17.676,0,0,0-8.394,1.017" transform="translate(0 -3.871)" fill="#212720"/>
  </g>
</svg>
