<svg xmlns="http://www.w3.org/2000/svg" width="106.195" height="26.643" viewBox="0 0 106.195 26.643">
  <path id="Forbes_logo" d="M61.2,10.684c0-3.109.054-6,.214-8.684l-8.2,1.555v.75l.8.107A1.479,1.479,0,0,1,55.2,5a4.743,4.743,0,0,1,.482,1.715c.107,1.555.214,5.093.161,10.668,0,5.522-.054,9.006-.161,10.346a33.872,33.872,0,0,0,6.969.911,10.034,10.034,0,0,0,7.559-2.788A10.329,10.329,0,0,0,72.994,18.3,9.427,9.427,0,0,0,70.9,12.024,6.573,6.573,0,0,0,65.65,9.559,10.487,10.487,0,0,0,61.2,10.684ZM61.361,27.2c-.107-1.715-.214-6.862-.214-15.278a6.175,6.175,0,0,1,1.93-.268,3.381,3.381,0,0,1,3.056,1.983,9.944,9.944,0,0,1,1.126,4.985,13.759,13.759,0,0,1-1.287,6.272c-.858,1.662-1.93,2.52-3.27,2.52a10.006,10.006,0,0,0-1.34-.214ZM22.443,2.536H1V3.608l1.126.107a2.849,2.849,0,0,1,1.823.965,4.982,4.982,0,0,1,.643,2.573,101.877,101.877,0,0,1,0,16.189,6.345,6.345,0,0,1-.643,2.573,2.443,2.443,0,0,1-1.823.965L1,27.142v1.072H14.831V27.142l-1.447-.107a2.627,2.627,0,0,1-1.823-.965,4.982,4.982,0,0,1-.643-2.573c-.161-2.144-.268-4.61-.268-7.344l2.895.054c1.555.054,2.627,1.233,3.163,3.592h1.072V11.06H16.707c-.536,2.305-1.555,3.484-3.163,3.538l-2.895.054c0-4.825.107-8.255.268-10.346h4.235c3,0,5.039,1.93,6.218,5.79l1.287-.375Zm-2.52,16.511a10.3,10.3,0,0,0,2.359,6.915c1.555,1.823,3.86,2.68,6.754,2.68a9.01,9.01,0,0,0,6.969-2.788,9.652,9.652,0,0,0,2.52-6.915,10.3,10.3,0,0,0-2.359-6.915c-1.555-1.823-3.86-2.68-6.754-2.68a9.01,9.01,0,0,0-6.969,2.788,9.652,9.652,0,0,0-2.52,6.915Zm11.954-6.111a16.2,16.2,0,0,1,.911,6.058c0,5.682-1.179,8.47-3.484,8.47q-1.769,0-2.734-2.412a16.573,16.573,0,0,1-.911-6.058c0-5.629,1.179-8.416,3.484-8.416C30.323,10.523,31.234,11.328,31.878,12.936Zm45.3,13.026a9.133,9.133,0,0,0,6.7,2.68,9.021,9.021,0,0,0,4.4-1.019,8.069,8.069,0,0,0,3-2.412l-.536-.643a6.421,6.421,0,0,1-4.074,1.34,5.874,5.874,0,0,1-4.932-2.144,7.927,7.927,0,0,1-1.608-5.629H91.6a9.708,9.708,0,0,0-1.983-6.326A6.923,6.923,0,0,0,83.983,9.4a8.815,8.815,0,0,0-6.969,2.841,10.036,10.036,0,0,0-2.466,6.915,9.17,9.17,0,0,0,2.627,6.808Zm3.967-13.455c.59-1.287,1.34-1.93,2.359-1.93,1.608,0,2.412,2.037,2.412,6.165l-5.682.107a11.206,11.206,0,0,1,.911-4.342Zm24.874-2.144a13.448,13.448,0,0,0-5.468-1.019,8.04,8.04,0,0,0-5.361,1.715,5.278,5.278,0,0,0-2.037,4.181,4.579,4.579,0,0,0,1.233,3.377,10.158,10.158,0,0,0,3.752,2.091,10.194,10.194,0,0,1,3.109,1.555,2.66,2.66,0,0,1,0,3.913,2.873,2.873,0,0,1-2.251.858c-2.359,0-4.128-1.715-5.361-5.146l-.911.268.214,5.361a17.615,17.615,0,0,0,6.433,1.126,8.809,8.809,0,0,0,5.736-1.662,5.458,5.458,0,0,0,2.091-4.557,4.676,4.676,0,0,0-1.019-3.163,8.786,8.786,0,0,0-3.431-2.144A13.4,13.4,0,0,1,99.1,15.348a2.461,2.461,0,0,1-.965-1.983,2.807,2.807,0,0,1,.7-1.983,2.278,2.278,0,0,1,1.823-.75c2.144,0,3.7,1.555,4.664,4.61l.911-.268ZM54.446,9.88a5.368,5.368,0,0,0-2.466-.536,4.815,4.815,0,0,0-2.841,1.126,7.244,7.244,0,0,0-2.359,3.163l.054-4.289-8.148,1.608v.75l.8.054c1.019.107,1.608.911,1.715,2.359a58.446,58.446,0,0,1,0,10.614c-.107,1.447-.7,2.2-1.715,2.359l-.8.107v1.019H50.05V27.2L48.6,27.088c-1.019-.107-1.608-.911-1.715-2.359a54.763,54.763,0,0,1-.107-9.864,2.583,2.583,0,0,1,2.091-.965,6.069,6.069,0,0,1,3.592.965L54.446,9.88Z" transform="translate(-1 -2)" fill="#212720"/>
</svg>
